<svg id="svg" version="1.1" xmlns="http://www.w3.org/2000/svg" xmlns:xlink="http://www.w3.org/1999/xlink" width="400" height="400" viewBox="0, 0, 400,400">
<g id="svgg">
<symbol id="calc" viewBox="0, 0, 400,400">
<path id="path0" d="M63.200 0.291 C 62.430 0.382,61.629 0.624,61.420 0.829 C 61.211 1.033,60.716 1.200,60.320 1.200 C 59.924 1.200,59.600 1.380,59.600 1.600 C 59.600 1.820,59.330 2.000,59.000 2.000 C 58.670 2.000,58.400 2.180,58.400 2.400 C 58.400 2.620,58.040 2.800,57.600 2.800 C 57.160 2.800,56.800 2.980,56.800 3.200 C 56.800 3.420,56.524 3.600,56.187 3.600 C 55.849 3.600,54.904 4.234,54.087 5.008 C 50.294 8.601,48.006 11.042,48.003 11.500 C 48.001 11.775,47.865 12.001,47.700 12.003 C 47.341 12.007,46.400 13.944,46.400 14.680 C 46.400 14.966,46.220 15.200,46.000 15.200 C 45.780 15.200,45.600 15.560,45.600 16.000 C 45.600 16.440,45.420 16.800,45.200 16.800 C 44.980 16.800,44.800 17.329,44.800 17.976 C 44.800 18.623,44.620 19.264,44.400 19.400 C 44.180 19.536,44.000 20.616,44.000 21.800 C 44.000 22.984,43.820 24.064,43.600 24.200 C 43.045 24.543,43.045 375.457,43.600 375.800 C 43.820 375.936,44.000 377.016,44.000 378.200 C 44.000 379.384,44.180 380.464,44.400 380.600 C 44.620 380.736,44.800 381.377,44.800 382.024 C 44.800 382.671,44.980 383.200,45.200 383.200 C 45.420 383.200,45.600 383.560,45.600 384.000 C 45.600 384.440,45.780 384.800,46.000 384.800 C 46.220 384.800,46.400 385.034,46.400 385.320 C 46.400 386.056,47.341 387.993,47.700 387.997 C 47.865 387.999,48.000 388.206,48.000 388.459 C 48.000 388.945,51.505 392.885,52.186 393.164 C 52.406 393.255,53.250 394.020,54.062 394.864 C 54.873 395.709,55.821 396.400,56.169 396.400 C 56.516 396.400,56.800 396.580,56.800 396.800 C 56.800 397.020,57.160 397.200,57.600 397.200 C 58.040 397.200,58.400 397.380,58.400 397.600 C 58.400 397.820,58.670 398.000,59.000 398.000 C 59.330 398.000,59.600 398.180,59.600 398.400 C 59.600 398.620,59.924 398.800,60.320 398.800 C 60.716 398.800,61.265 399.025,61.540 399.300 C 62.275 400.035,337.725 400.035,338.460 399.300 C 338.735 399.025,339.284 398.800,339.680 398.800 C 340.076 398.800,340.400 398.620,340.400 398.400 C 340.400 398.180,340.670 398.000,341.000 398.000 C 341.330 398.000,341.600 397.820,341.600 397.600 C 341.600 397.380,341.960 397.200,342.400 397.200 C 342.840 397.200,343.200 397.020,343.200 396.800 C 343.200 396.580,343.484 396.400,343.831 396.400 C 344.179 396.400,345.124 395.715,345.931 394.878 C 346.739 394.040,347.715 393.236,348.100 393.090 C 348.485 392.944,348.800 392.639,348.800 392.412 C 348.800 392.184,349.520 391.347,350.400 390.552 C 351.280 389.757,352.000 388.873,352.000 388.587 C 352.000 388.301,352.135 388.007,352.300 387.933 C 352.732 387.741,354.400 384.428,354.400 383.762 C 354.400 383.453,354.580 383.200,354.800 383.200 C 355.020 383.200,355.200 382.696,355.200 382.080 C 355.200 381.464,355.364 380.789,355.565 380.580 C 356.430 379.679,356.496 366.845,356.496 200.000 C 356.496 33.155,356.430 20.321,355.565 19.420 C 355.364 19.211,355.200 18.536,355.200 17.920 C 355.200 17.304,355.020 16.800,354.800 16.800 C 354.580 16.800,354.400 16.547,354.400 16.238 C 354.400 15.572,352.732 12.259,352.300 12.067 C 352.135 11.993,351.999 11.723,351.997 11.467 C 351.994 11.038,349.634 8.532,345.913 5.008 C 345.096 4.234,344.151 3.600,343.813 3.600 C 343.476 3.600,343.200 3.420,343.200 3.200 C 343.200 2.980,342.840 2.800,342.400 2.800 C 341.960 2.800,341.600 2.620,341.600 2.400 C 341.600 2.180,341.330 2.000,341.000 2.000 C 340.670 2.000,340.400 1.820,340.400 1.600 C 340.400 1.380,340.076 1.200,339.680 1.200 C 339.284 1.200,338.735 0.975,338.460 0.700 C 337.982 0.222,67.167 -0.181,63.200 0.291 M302.000 45.200 C 302.000 45.420,302.540 45.600,303.200 45.600 C 303.860 45.600,304.400 45.780,304.400 46.000 C 304.400 46.220,304.816 46.400,305.325 46.400 C 305.833 46.400,306.636 46.760,307.108 47.200 C 307.580 47.640,308.122 48.000,308.313 48.000 C 308.813 48.000,313.600 53.033,313.600 53.558 C 313.600 53.801,313.780 54.000,314.000 54.000 C 314.220 54.000,314.400 54.270,314.400 54.600 C 314.400 54.930,314.580 55.200,314.800 55.200 C 315.020 55.200,315.200 55.560,315.200 56.000 C 315.200 56.440,315.360 56.800,315.555 56.800 C 315.750 56.800,316.049 57.385,316.221 58.100 C 316.713 60.153,316.890 97.600,316.408 97.600 C 316.183 97.600,316.000 97.962,316.000 98.405 C 316.000 98.848,315.820 99.568,315.600 100.005 C 315.380 100.442,315.020 101.160,314.800 101.600 C 313.812 103.575,313.256 104.303,311.049 106.507 C 308.660 108.894,304.669 111.200,302.929 111.200 C 302.418 111.200,302.000 111.380,302.000 111.600 C 302.000 111.866,267.733 112.000,200.000 112.000 C 132.267 112.000,98.000 111.866,98.000 111.600 C 98.000 111.380,97.582 111.200,97.071 111.200 C 94.630 111.200,86.400 105.343,86.400 103.605 C 86.400 103.364,86.040 102.780,85.600 102.308 C 85.160 101.836,84.800 101.134,84.800 100.748 C 84.800 100.363,84.620 99.936,84.400 99.800 C 84.180 99.664,84.000 99.113,84.000 98.576 C 84.000 98.039,83.817 97.600,83.592 97.600 C 83.110 97.600,83.287 60.153,83.779 58.100 C 83.951 57.385,84.250 56.800,84.445 56.800 C 84.640 56.800,84.800 56.440,84.800 56.000 C 84.800 55.560,84.980 55.200,85.200 55.200 C 85.420 55.200,85.600 54.946,85.600 54.635 C 85.600 53.939,91.110 48.000,91.756 48.000 C 92.013 48.000,92.483 47.640,92.800 47.200 C 93.139 46.730,93.835 46.400,94.488 46.400 C 95.100 46.400,95.600 46.220,95.600 46.000 C 95.600 45.780,96.140 45.600,96.800 45.600 C 97.460 45.600,98.000 45.420,98.000 45.200 C 98.000 44.934,132.267 44.800,200.000 44.800 C 267.733 44.800,302.000 44.934,302.000 45.200 M131.000 155.600 C 131.136 155.820,131.687 156.000,132.224 156.000 C 132.761 156.000,133.200 156.180,133.200 156.400 C 133.200 156.620,133.560 156.800,134.000 156.800 C 134.440 156.800,134.800 156.968,134.800 157.173 C 134.800 157.378,135.149 157.657,135.575 157.792 C 136.001 157.927,136.585 158.569,136.873 159.219 C 137.160 159.869,137.531 160.400,137.698 160.400 C 137.864 160.400,138.000 160.749,138.000 161.176 C 138.000 161.603,138.180 162.064,138.400 162.200 C 138.655 162.357,138.800 167.737,138.800 177.024 L 138.800 191.600 153.600 191.600 C 163.200 191.600,168.400 191.741,168.400 192.000 C 168.400 192.220,168.760 192.400,169.200 192.400 C 169.640 192.400,170.000 192.580,170.000 192.800 C 170.000 193.020,170.278 193.200,170.618 193.200 C 171.343 193.200,173.200 194.951,173.200 195.635 C 173.200 195.894,173.541 196.402,173.958 196.763 C 175.267 197.899,175.297 204.115,174.000 205.508 C 173.560 205.980,173.200 206.567,173.200 206.812 C 173.200 207.526,172.263 208.271,169.982 209.372 L 167.850 210.400 153.325 210.400 L 138.800 210.400 138.800 224.976 C 138.800 234.263,138.655 239.643,138.400 239.800 C 138.180 239.936,138.000 240.487,138.000 241.024 C 138.000 241.561,137.820 242.000,137.600 242.000 C 137.380 242.000,137.200 242.186,137.200 242.413 C 137.200 243.058,134.499 245.600,133.813 245.600 C 133.476 245.600,133.200 245.780,133.200 246.000 C 133.200 246.220,132.761 246.400,132.224 246.400 C 131.687 246.400,131.136 246.580,131.000 246.800 C 130.864 247.020,129.964 247.200,129.000 247.200 C 128.036 247.200,127.136 247.020,127.000 246.800 C 126.864 246.580,126.403 246.400,125.976 246.400 C 125.549 246.400,125.200 246.220,125.200 246.000 C 125.200 245.780,124.982 245.600,124.715 245.600 C 124.061 245.600,120.800 242.366,120.800 241.717 C 120.800 241.433,120.638 241.200,120.440 241.200 C 119.754 241.200,119.509 237.329,119.344 223.900 L 119.179 210.400 104.839 210.400 C 89.062 210.400,88.982 210.389,86.400 207.923 C 84.850 206.442,84.000 205.126,84.000 204.205 C 84.000 203.872,83.820 203.600,83.600 203.600 C 83.378 203.600,83.200 202.533,83.200 201.200 C 83.200 199.867,83.378 198.800,83.600 198.800 C 83.820 198.800,84.000 198.528,84.000 198.195 C 84.000 196.833,87.799 192.400,88.966 192.400 C 89.289 192.400,89.664 192.220,89.800 192.000 C 89.957 191.745,95.334 191.600,104.613 191.600 L 119.179 191.600 119.344 178.300 C 119.509 165.055,119.756 161.200,120.440 161.200 C 120.638 161.200,120.800 160.922,120.800 160.582 C 120.800 159.513,124.892 156.000,126.138 156.000 C 126.502 156.000,126.800 155.820,126.800 155.600 C 126.800 155.380,127.689 155.200,128.776 155.200 C 129.863 155.200,130.864 155.380,131.000 155.600 M310.400 192.000 C 310.400 192.220,310.760 192.400,311.200 192.400 C 311.640 192.400,312.000 192.580,312.000 192.800 C 312.000 193.020,312.270 193.200,312.600 193.200 C 312.930 193.200,313.200 193.380,313.200 193.600 C 313.200 193.820,313.448 194.000,313.751 194.000 C 314.055 194.000,314.527 194.540,314.800 195.200 C 315.073 195.860,315.455 196.400,315.649 196.400 C 315.842 196.400,316.000 196.760,316.000 197.200 C 316.000 197.640,316.180 198.000,316.400 198.000 C 316.633 198.000,316.800 199.333,316.800 201.200 C 316.800 203.067,316.633 204.400,316.400 204.400 C 316.180 204.400,316.000 204.678,316.000 205.017 C 316.000 205.356,315.640 206.020,315.200 206.492 C 314.760 206.964,314.398 207.542,314.395 207.775 C 314.392 208.009,313.357 208.695,312.095 209.301 L 309.800 210.401 270.700 210.401 C 244.900 210.400,231.600 210.264,231.600 210.000 C 231.600 209.780,231.278 209.600,230.885 209.600 C 229.972 209.600,226.000 205.894,226.000 205.043 C 226.000 204.689,225.820 204.400,225.600 204.400 C 225.367 204.400,225.200 203.067,225.200 201.200 C 225.200 199.333,225.367 198.000,225.600 198.000 C 225.820 198.000,226.000 197.726,226.000 197.391 C 226.000 196.599,230.199 192.400,230.991 192.400 C 231.326 192.400,231.600 192.220,231.600 192.000 C 231.600 191.736,245.000 191.600,271.000 191.600 C 297.000 191.600,310.400 191.736,310.400 192.000 M245.600 282.800 C 245.600 283.020,246.140 283.200,246.800 283.200 C 247.460 283.200,248.000 283.380,248.000 283.600 C 248.000 283.820,248.274 284.000,248.609 284.000 C 249.401 284.000,253.600 288.199,253.600 288.991 C 253.600 289.326,253.780 289.600,254.000 289.600 C 254.220 289.600,254.400 290.050,254.400 290.600 C 254.400 291.150,254.580 291.600,254.800 291.600 C 255.029 291.600,255.200 292.800,255.200 294.400 C 255.200 296.000,255.029 297.200,254.800 297.200 C 254.580 297.200,254.400 297.740,254.400 298.400 C 254.400 299.060,254.250 299.600,254.068 299.600 C 253.885 299.600,253.481 300.095,253.169 300.700 C 252.474 302.052,250.032 304.400,249.322 304.400 C 249.035 304.400,248.800 304.580,248.800 304.800 C 248.800 305.020,248.440 305.200,248.000 305.200 C 247.560 305.200,247.200 305.380,247.200 305.600 C 247.200 305.820,246.570 306.000,245.800 306.000 C 245.030 306.000,244.400 306.180,244.400 306.400 C 244.400 306.620,243.871 306.800,243.224 306.800 C 242.577 306.800,241.936 306.620,241.800 306.400 C 241.664 306.180,241.023 306.000,240.376 306.000 C 239.729 306.000,239.200 305.820,239.200 305.600 C 239.200 305.380,238.840 305.200,238.400 305.200 C 237.960 305.200,237.600 305.020,237.600 304.800 C 237.600 304.580,237.415 304.400,237.189 304.400 C 236.543 304.400,233.200 300.889,233.200 300.211 C 233.200 299.875,233.020 299.600,232.800 299.600 C 232.580 299.600,232.400 299.240,232.400 298.800 C 232.400 298.360,232.220 298.000,232.000 298.000 C 231.763 298.000,231.600 296.533,231.600 294.400 C 231.600 292.267,231.763 290.800,232.000 290.800 C 232.220 290.800,232.400 290.390,232.400 289.888 C 232.400 289.387,232.760 288.717,233.200 288.400 C 233.640 288.083,234.000 287.636,234.000 287.407 C 234.000 287.178,234.559 286.543,235.242 285.996 C 235.925 285.448,236.697 284.820,236.957 284.600 C 237.904 283.801,239.207 283.200,239.995 283.200 C 240.438 283.200,240.800 283.020,240.800 282.800 C 240.800 282.578,241.867 282.400,243.200 282.400 C 244.533 282.400,245.600 282.578,245.600 282.800 M105.400 285.200 C 105.536 285.420,106.087 285.600,106.624 285.600 C 107.161 285.600,107.600 285.780,107.600 286.000 C 107.600 286.220,107.843 286.400,108.140 286.400 C 108.436 286.400,113.109 290.810,118.523 296.200 C 125.623 303.269,128.622 306.000,129.281 306.000 C 129.941 306.000,132.647 303.528,139.022 297.100 C 149.305 286.731,150.601 285.600,152.195 285.600 C 152.528 285.600,152.800 285.420,152.800 285.200 C 152.800 284.980,153.700 284.800,154.800 284.800 C 155.900 284.800,156.800 284.980,156.800 285.200 C 156.800 285.420,157.177 285.600,157.638 285.600 C 159.168 285.600,162.207 288.138,163.147 290.200 C 163.447 290.860,163.852 291.713,164.047 292.095 C 164.528 293.041,164.494 296.294,164.000 296.600 C 163.780 296.736,163.600 297.287,163.600 297.824 C 163.600 298.361,163.459 298.800,163.286 298.800 C 163.114 298.800,162.633 299.385,162.218 300.100 C 161.803 300.815,157.354 305.491,152.332 310.491 C 147.309 315.492,143.200 319.871,143.200 320.222 C 143.200 320.574,147.610 325.279,153.000 330.677 C 158.390 336.075,162.800 340.741,162.800 341.046 C 162.800 341.351,162.936 341.600,163.103 341.600 C 163.581 341.600,164.400 344.627,164.400 346.394 C 164.400 347.277,164.220 348.000,164.000 348.000 C 163.780 348.000,163.600 348.434,163.600 348.964 C 163.600 349.987,159.773 354.400,158.885 354.400 C 158.618 354.400,158.400 354.580,158.400 354.800 C 158.400 355.020,157.680 355.200,156.800 355.200 C 155.804 355.200,155.188 355.389,155.168 355.700 C 155.143 356.100,155.096 356.100,154.935 355.700 C 154.816 355.406,154.006 355.200,152.967 355.200 C 151.995 355.200,151.200 355.020,151.200 354.800 C 151.200 354.580,150.942 354.400,150.626 354.400 C 150.310 354.400,145.458 349.810,139.843 344.200 C 134.228 338.590,129.465 334.000,129.259 334.000 C 129.052 334.000,124.637 338.230,119.446 343.400 C 114.256 348.570,109.867 352.800,109.693 352.800 C 109.519 352.800,109.117 353.160,108.800 353.600 C 108.483 354.040,107.918 354.400,107.545 354.400 C 107.172 354.400,106.803 354.590,106.726 354.822 C 106.561 355.318,100.396 355.409,100.037 354.922 C 99.907 354.744,99.260 354.329,98.600 353.999 C 97.029 353.215,95.600 351.795,95.600 351.018 C 95.600 350.678,95.465 350.399,95.300 350.397 C 95.135 350.395,94.775 349.909,94.500 349.317 C 93.903 348.031,93.821 342.400,94.400 342.400 C 94.620 342.400,94.800 342.168,94.800 341.884 C 94.800 341.600,99.390 336.750,105.000 331.105 C 110.610 325.461,115.200 320.550,115.200 320.194 C 115.200 319.837,110.790 315.144,105.400 309.764 C 100.010 304.384,95.596 299.851,95.591 299.691 C 95.586 299.531,95.230 298.950,94.800 298.400 C 93.870 297.211,93.672 292.157,94.500 290.722 C 95.699 288.641,99.318 285.600,100.595 285.600 C 100.928 285.600,101.200 285.420,101.200 285.200 C 101.200 284.980,102.089 284.800,103.176 284.800 C 104.263 284.800,105.264 284.980,105.400 285.200 M296.400 287.600 C 296.400 287.820,296.672 288.000,297.005 288.000 C 297.631 288.000,299.035 288.700,299.814 289.400 C 300.059 289.620,300.829 290.250,301.526 290.800 C 302.223 291.350,302.794 292.115,302.796 292.500 C 302.798 292.885,302.980 293.200,303.200 293.200 C 303.437 293.200,303.600 294.667,303.600 296.800 C 303.600 298.933,303.437 300.400,303.200 300.400 C 302.980 300.400,302.800 300.661,302.800 300.979 C 302.800 301.741,247.748 356.800,246.986 356.800 C 246.664 356.800,246.400 356.980,246.400 357.200 C 246.400 357.420,245.590 357.600,244.600 357.600 C 243.444 357.600,242.789 357.779,242.768 358.100 C 242.743 358.500,242.696 358.500,242.535 358.100 C 242.424 357.825,241.718 357.600,240.967 357.600 C 240.215 357.600,239.600 357.420,239.600 357.200 C 239.600 356.980,239.325 356.800,238.989 356.800 C 237.804 356.800,234.000 352.382,234.000 351.005 C 234.000 350.672,233.820 350.400,233.600 350.400 C 233.380 350.400,233.200 349.511,233.200 348.424 C 233.200 347.337,233.380 346.336,233.600 346.200 C 233.820 346.064,234.000 345.513,234.000 344.976 C 234.000 344.439,234.180 344.000,234.400 344.000 C 234.620 344.000,234.800 343.750,234.800 343.444 C 234.800 342.310,288.090 289.415,290.200 288.454 C 290.860 288.153,291.670 287.759,292.000 287.577 C 292.859 287.105,296.400 287.123,296.400 287.600 M302.000 334.400 C 302.000 334.620,302.416 334.800,302.925 334.800 C 303.433 334.800,304.236 335.160,304.708 335.600 C 305.180 336.040,305.709 336.400,305.883 336.400 C 306.536 336.401,308.238 338.255,309.005 339.800 C 309.442 340.680,309.935 341.460,310.100 341.533 C 310.265 341.607,310.400 342.194,310.400 342.839 C 310.400 343.483,310.614 344.353,310.875 344.772 C 312.149 346.811,307.366 356.000,305.031 356.000 C 304.684 356.000,304.400 356.180,304.400 356.400 C 304.400 356.620,304.040 356.800,303.600 356.800 C 303.160 356.800,302.800 356.980,302.800 357.200 C 302.800 357.420,302.095 357.600,301.233 357.600 C 300.371 357.600,299.562 357.825,299.433 358.100 C 299.247 358.500,299.153 358.500,298.967 358.100 C 298.832 357.812,297.994 357.600,296.990 357.600 C 296.032 357.600,295.136 357.420,295.000 357.200 C 294.864 356.980,294.476 356.800,294.137 356.800 C 293.798 356.800,293.017 356.260,292.400 355.600 C 291.783 354.940,291.093 354.400,290.866 354.400 C 290.640 354.400,290.340 354.041,290.201 353.602 C 290.062 353.164,289.734 352.572,289.474 352.287 C 288.650 351.386,288.000 350.038,288.000 349.229 C 288.000 348.799,287.820 348.336,287.600 348.200 C 287.380 348.064,287.200 346.883,287.200 345.576 C 287.200 344.259,287.378 343.200,287.600 343.200 C 287.820 343.200,288.000 342.868,288.000 342.461 C 288.000 340.722,291.998 335.600,293.357 335.600 C 293.710 335.600,294.000 335.420,294.000 335.200 C 294.000 334.980,294.540 334.800,295.200 334.800 C 295.860 334.800,296.400 334.620,296.400 334.400 C 296.400 334.171,297.600 334.000,299.200 334.000 C 300.800 334.000,302.000 334.171,302.000 334.400 " stroke="none" fill="#040404" fill-rule="evenodd"></path><path id="path1" d="" stroke="none" fill="#080404" fill-rule="evenodd"></path><path id="path2" d="" stroke="none" fill="#080404" fill-rule="evenodd"></path><path id="path3" d="" stroke="none" fill="#080404" fill-rule="evenodd"></path><path id="path4" d="" stroke="none" fill="#080404" fill-rule="evenodd"></path></symbol></g></svg>